<?xml version="1.0" encoding="UTF-8"?>
<svg xmlns="http://www.w3.org/2000/svg" xmlns:xlink="http://www.w3.org/1999/xlink" version="1.1" id="Capa_1" x="0px" y="0px" viewBox="0 0 512 512" style="enable-background:new 0 0 512 512;" xml:space="preserve" width="512" height="512">
<g>
	<path style="fill:none;stroke:#000000;stroke-width:15;stroke-linecap:round;stroke-linejoin:round;stroke-miterlimit:10;" d="&#10;&#9;&#9;M92.38,216.042c12.613-6.909,27.091-10.837,42.486-10.837c48.913,0,88.564,39.652,88.564,88.564&#10;&#9;&#9;c0,20.457-6.936,39.294-18.584,54.288"/>
	<path style="fill:none;stroke:#000000;stroke-width:15;stroke-linecap:round;stroke-linejoin:round;stroke-miterlimit:10;" d="&#10;&#9;&#9;M480.802,233.469c14.704,15.811,23.698,37.005,23.698,60.3c0,48.913-39.652,88.565-88.564,88.565s-88.565-39.652-88.565-88.565&#10;&#9;&#9;s39.652-88.564,88.565-88.564c12.943,0,25.238,2.776,36.321,7.766"/>
	<path style="fill:none;stroke:#000000;stroke-width:15;stroke-linecap:round;stroke-linejoin:round;stroke-miterlimit:10;" d="&#10;&#9;&#9;M226.924,105.856h-22.698c-1.694,0-3.205,1.068-3.771,2.665l-60.333,170.403"/>
	<path style="fill:none;stroke:#000000;stroke-width:15;stroke-linecap:round;stroke-linejoin:round;stroke-miterlimit:10;" d="&#10;&#9;&#9;M278.291,119.891h-46.366c-2.209,0-4-1.791-4-4v-17c0-2.209,1.791-4,4-4h46.366c2.209,0,4,1.791,4,4v17&#10;&#9;&#9;C282.291,118.1,280.5,119.891,278.291,119.891z"/>
	<path style="fill:none;stroke:#000000;stroke-width:15;stroke-linecap:round;stroke-linejoin:round;stroke-miterlimit:10;" d="&#10;&#9;&#9;M355.004,164.169h-43.445c-2.209,0-4-1.791-4-4V142.98c0-2.209,1.791-4,4-4h55.574c2.209,0,4,1.791,4,4v5.06&#10;&#9;&#9;C371.133,156.948,363.911,164.169,355.004,164.169z"/>
	
		<line style="fill:none;stroke:#000000;stroke-width:15;stroke-linecap:round;stroke-linejoin:round;stroke-miterlimit:10;" x1="300.864" y1="233.474" x2="191.011" y2="135.195"/>
	
		<line style="fill:none;stroke:#000000;stroke-width:15;stroke-linecap:round;stroke-linejoin:round;stroke-miterlimit:10;" x1="325.052" y1="165.69" x2="285.094" y2="277.666"/>
	
		<line style="fill:none;stroke:#000000;stroke-width:15;stroke-linecap:round;stroke-linejoin:round;stroke-miterlimit:10;" x1="398.097" y1="293.362" x2="294.476" y2="293.362"/>
	
		<line style="fill:none;stroke:#000000;stroke-width:15;stroke-linecap:round;stroke-linejoin:round;stroke-miterlimit:10;" x1="317.302" y1="190.784" x2="409.999" y2="277.109"/>
	
		<circle style="fill:none;stroke:#000000;stroke-width:15;stroke-linecap:round;stroke-linejoin:round;stroke-miterlimit:10;" cx="415.936" cy="293.769" r="16.661"/>
	<path style="fill:none;stroke:#000000;stroke-width:15;stroke-linecap:round;stroke-linejoin:round;stroke-miterlimit:10;" d="&#10;&#9;&#9;M135.169,115.195h23.791c2.767,0,4.698,2.741,3.766,5.347l-16.441,45.981c-1.422,3.978-5.191,6.633-9.416,6.633h-38.4&#10;&#9;&#9;c-4.225,0-7.994-2.655-9.416-6.633l-16.441-45.981c-0.932-2.605,1-5.347,3.766-5.347h23.791"/>
	
		<line style="fill:none;stroke:#000000;stroke-width:15;stroke-linecap:round;stroke-linejoin:round;stroke-miterlimit:10;" x1="191.011" y1="135.195" x2="158.638" y2="135.195"/>
	
		<line style="fill:none;stroke:#000000;stroke-width:15;stroke-linecap:round;stroke-linejoin:round;stroke-miterlimit:10;" x1="276.493" y1="310.915" x2="276.493" y2="340.152"/>
	
		<line style="fill:none;stroke:#000000;stroke-width:15;stroke-linecap:round;stroke-linejoin:round;stroke-miterlimit:10;" x1="259.832" y1="341.152" x2="293.154" y2="341.152"/>
	<g>
		
			<polyline style="fill:none;stroke:#000000;stroke-width:15;stroke-linecap:round;stroke-linejoin:round;stroke-miterlimit:10;" points="&#10;&#9;&#9;&#9;123.366,348.851 123.366,300.213 91.165,270.256 &#9;&#9;"/>
		<path style="fill:none;stroke:#000000;stroke-width:15;stroke-linecap:round;stroke-linejoin:round;stroke-miterlimit:10;" d="&#10;&#9;&#9;&#9;M90.966,235.925l53.414,49.692c2.542,2.365,3.986,5.68,3.986,9.152v54.082"/>
	</g>
	
		<polyline style="fill:none;stroke:#000000;stroke-width:15;stroke-linecap:round;stroke-linejoin:round;stroke-miterlimit:10;" points="&#10;&#9;&#9;31.524,349.471 7.5,349.471 7.5,382.549 &#9;"/>
	<path style="fill:none;stroke:#000000;stroke-width:15;stroke-linecap:round;stroke-linejoin:round;stroke-miterlimit:10;" d="&#10;&#9;&#9;M234.548,380.851v-21.38c0-5.523-4.477-10-10-10H66.524"/>
	<path style="fill:none;stroke:#000000;stroke-width:15;stroke-linecap:round;stroke-linejoin:round;stroke-miterlimit:10;" d="&#10;&#9;&#9;M90.548,348.057V201.625c0-2.209-1.791-4-4-4H7.5v151.846"/>
	<g>
		
			<polyline style="fill:none;stroke:#000000;stroke-width:15;stroke-linecap:round;stroke-linejoin:round;stroke-miterlimit:10;" points="&#10;&#9;&#9;&#9;39.157,258.765 58.892,258.765 43.122,294.638 &#9;&#9;"/>
	</g>
	<path style="fill:none;stroke:#000000;stroke-width:15;stroke-linecap:round;stroke-linejoin:round;stroke-miterlimit:10;" d="&#10;&#9;&#9;M264.665,279.916l-27.411-45.434c-12.864-21.321-29.784-39.913-49.804-54.721l-7.4-5.473"/>
	
		<circle style="fill:none;stroke:#000000;stroke-width:15;stroke-linecap:round;stroke-linejoin:round;stroke-miterlimit:10;" cx="276.493" cy="293.362" r="16.661"/>
	<path style="fill:none;stroke:#000000;stroke-width:15;stroke-linecap:round;stroke-linejoin:round;stroke-miterlimit:10;" d="&#10;&#9;&#9;M65.717,196.295L40.366,137.51c-0.656-1.412-2.071-2.315-3.628-2.315H11.5c-2.209,0-4,1.791-4,4v58.43"/>
	
		<line style="fill:none;stroke:#000000;stroke-width:15;stroke-linecap:round;stroke-linejoin:round;stroke-miterlimit:10;" x1="310.654" y1="382.547" x2="504.5" y2="382.547"/>
	
		<line style="fill:none;stroke:#000000;stroke-width:15;stroke-linecap:round;stroke-linejoin:round;stroke-miterlimit:10;" x1="7.5" y1="382.547" x2="275.654" y2="382.547"/>
	
		<line style="fill:none;stroke:#000000;stroke-width:15;stroke-linecap:round;stroke-linejoin:round;stroke-miterlimit:10;" x1="7.5" y1="417.109" x2="504.5" y2="417.109"/>
</g>















</svg>
