<svg id="Capa_1" enable-background="new 0 0 512 512" height="512" viewBox="0 0 512 512" width="512" xmlns="http://www.w3.org/2000/svg"><g><path d="m504.499 168.181c4.142 0 7.501-3.358 7.501-7.501v-79.143c0-12.408-10.094-22.502-22.502-22.502h-83.088c-12.408 0-22.502 10.094-22.502 22.502v123.514c0 12.408 10.094 22.502 22.502 22.502h34.044v97.724c-4.963-1.673-10.166-2.777-15.524-3.248-1.794-20.475-10.723-39.476-25.541-54.006-16.238-15.922-37.708-24.691-60.453-24.691-12.132 0-23.682 2.527-34.168 7.063l-36.202-67.569h37.901c4.485 0 8.133 3.648 8.133 8.133s-3.648 8.133-8.133 8.133h-2.828c-4.142 0-7.501 3.358-7.501 7.501 0 4.142 3.358 7.501 7.501 7.501h2.828c12.756 0 23.134-10.378 23.134-23.134s-10.378-23.134-23.134-23.134h-47.088c-3.371 0-6.418 1.727-8.15 4.619-1.733 2.892-1.817 6.394-.224 9.368l12.516 23.361h-110.509l-1.212-2.261 14.557-11.459c3.77-2.967 5.932-7.42 5.932-12.218 0-8.573-6.975-15.548-15.548-15.548h-53.889c-14.113 0-25.594 11.481-25.594 25.594s11.481 25.594 25.594 25.594h20.813c5.421 0 10.781-1.207 15.671-3.463l.676 1.262-20.07 37.459c-10.33-4.378-21.682-6.801-33.59-6.801-11.193 0-22.087 2.112-32.38 6.278-3.84 1.554-5.693 5.927-4.138 9.767 1.554 3.84 5.927 5.693 9.767 4.138 8.496-3.439 17.497-5.182 26.752-5.182 9.347 0 18.271 1.825 26.46 5.108l-19.57 36.526c-2.212-.53-4.517-.819-6.89-.819-16.299 0-29.56 13.261-29.56 29.56s13.26 29.56 29.56 29.56c12.611 0 23.397-7.941 27.635-19.083h43.066c-4.662 34.866-34.58 61.852-70.701 61.852-39.344 0-71.352-32.008-71.352-71.352 0-17.847 6.623-34.929 18.647-48.098 2.793-3.059 2.578-7.803-.481-10.596s-7.803-2.578-10.596.481c-14.555 15.938-22.571 36.612-22.571 58.212 0 47.615 38.738 86.353 86.353 86.353 44.404 0 81.073-33.693 85.819-76.853h37.118c4.617 0 8.839-2.528 11.019-6.597l55.738-104.032 15.525 28.976c-23.463 15.454-38.99 42.018-38.99 72.153 0 24.681 10.396 47.857 28.66 64.247l-14.385 43.955c-1.143 3.492-.538 7.353 1.619 10.327s5.638 4.75 9.312 4.75h28.411c4.987 0 9.38-3.184 10.93-7.923l20.162-61.606c2.285-6.98 8.755-11.671 16.1-11.671h43.178c-9.648 13.206-23.603 22.809-39.592 26.974-4.009 1.044-6.412 5.14-5.368 9.149 1.029 4.041 5.248 6.417 9.149 5.368 22.769-5.931 42.124-20.969 53.591-41.49h4.646c7.345 0 13.815 4.69 16.1 11.671l20.161 61.605c1.55 4.741 5.943 7.925 10.93 7.925h28.411c3.674 0 7.155-1.776 9.312-4.75 2.156-2.975 2.761-6.835 1.619-10.327l-22.91-70.005c-4.892-14.945-14.643-27.225-27.164-35.349v-104.98h34.044c12.408 0 22.502-10.094 22.502-22.502v-8.77c0-4.142-3.358-7.501-7.501-7.501-4.142 0-7.501 3.358-7.501 7.501v8.77c0 4.136-3.365 7.501-7.501 7.501h-83.087c-4.136 0-7.501-3.365-7.501-7.501v-123.516c0-4.136 3.365-7.501 7.501-7.501h83.089c4.136 0 7.501 3.364 7.501 7.501v79.144c-.001 4.142 3.357 7.5 7.499 7.5zm-401.647 31.693c-5.841 0-10.593-4.752-10.593-10.593s4.752-10.593 10.593-10.593h53.889c.506-.016.743.677.339.977l-19.591 15.421c-3.922 3.088-8.832 4.788-13.824 4.788zm45.669 28.681 51.235 95.628h-27.244c-1.775-28.073-17.019-52.532-39.332-66.995zm-22.443 41.89c17.628 11.859 29.679 31.374 31.394 53.738h-41.906c-1.036-6.717-4.345-12.69-9.108-17.119zm-39.725 72.821c-8.027 0-14.559-6.531-14.559-14.559s6.531-14.559 14.559-14.559 14.559 6.531 14.559 14.559c-.001 8.029-6.532 14.559-14.559 14.559zm125.931-27.464-51.235-95.628h102.47zm126.651-57.469c36.369 0 66.907 27.915 70.896 63.427h-41.293c-3.134-12.957-14.821-22.613-28.727-22.613-2.876 0-5.655.421-8.285 1.19l-19.643-36.663c8.348-3.433 17.479-5.341 27.052-5.341zm-13.643 69.578c.417-7.657 6.76-13.763 14.518-13.763 5.52 0 10.332 3.088 12.8 7.627-9.666.112-18.935 2.268-27.318 6.136zm-57.709 1.774c0-24.421 12.338-46.008 31.102-58.876l19.973 37.279c-5.197 5.33-8.408 12.605-8.408 20.62 0 2.704.364 5.343 1.071 7.894-9.813 7.925-17.421 18.65-21.554 31.281l-3.311 10.117c-12.082-13.096-18.873-30.209-18.873-48.315zm200.778 42.863 21.408 65.416h-21.044l-19.372-59.195c-4.308-13.163-16.508-22.006-30.357-22.006h-65.606c-13.85 0-26.049 8.844-30.357 22.006l-19.372 59.195h-21.045l21.408-65.416c7.005-21.405 26.843-35.787 49.366-35.787h65.605c22.522 0 42.361 14.382 49.366 35.787z"/><path d="m430.408 98.206c-4.142 0-7.501 3.358-7.501 7.501v73.932c0 4.142 3.358 7.501 7.501 7.501 4.142 0 7.501-3.358 7.501-7.501v-24.654c4.542-.024 10.07-.05 13.085-.05 15.865 0 28.772-12.724 28.772-28.364s-12.907-28.364-28.772-28.364h-20.586zm34.357 28.365c0 7.244-6.307 13.363-13.771 13.363-2.432 0-8.475.017-13.085.036v-26.762h13.085c7.465-.001 13.771 6.119 13.771 13.363z"/></g></svg>