<?xml version="1.0" encoding="UTF-8" standalone="no"?>
<!-- Created with Inkscape (http://www.inkscape.org/) -->

<svg
   version="1.1"
   id="svg1137"
   xml:space="preserve"
   width="682.66669"
   height="682.66669"
   viewBox="0 0 682.66669 682.66669"
   xmlns="http://www.w3.org/2000/svg"
   xmlns:svg="http://www.w3.org/2000/svg"><defs
     id="defs1141"><clipPath
       clipPathUnits="userSpaceOnUse"
       id="clipPath1151"><path
         d="M 0,512 H 512 V 0 H 0 Z"
         id="path1149" /></clipPath></defs><g
     id="g1143"
     transform="matrix(1.3333333,0,0,-1.3333333,0,682.66667)"><g
       id="g1145"><g
         id="g1147"
         clip-path="url(#clipPath1151)"><g
           id="g1153"
           transform="translate(220.1338,372.0542)"><path
             d="m 0,0 c 25.181,12.904 53.719,20.184 83.958,20.184 101.816,0 184.354,-82.538 184.354,-184.354 0,-101.815 -82.538,-184.353 -184.354,-184.353 -101.815,0 -184.354,82.538 -184.354,184.353 0,30.202 7.263,58.708 20.138,83.867"
             style="fill:none;stroke:#000000;stroke-width:15;stroke-linecap:round;stroke-linejoin:round;stroke-miterlimit:10;stroke-dasharray:none;stroke-opacity:1"
             id="path1155" /></g><g
           id="g1157"
           transform="translate(304.0923,7.5)"><path
             d="M 0,0 V 16.031"
             style="fill:none;stroke:#000000;stroke-width:15;stroke-linecap:round;stroke-linejoin:round;stroke-miterlimit:10;stroke-dasharray:none;stroke-opacity:1"
             id="path1159" /></g><g
           id="g1161"
           transform="translate(304.0923,392.2383)"><path
             d="M 0,0 V 16.031"
             style="fill:none;stroke:#000000;stroke-width:15;stroke-linecap:round;stroke-linejoin:round;stroke-miterlimit:10;stroke-dasharray:none;stroke-opacity:1"
             id="path1163" /></g><g
           id="g1165"
           transform="translate(103.7075,207.8845)"><path
             d="M 0,0 H 16.031"
             style="fill:none;stroke:#000000;stroke-width:15;stroke-linecap:round;stroke-linejoin:round;stroke-miterlimit:10;stroke-dasharray:none;stroke-opacity:1"
             id="path1167" /></g><g
           id="g1169"
           transform="translate(488.4463,207.8845)"><path
             d="M 0,0 H 16.031"
             style="fill:none;stroke:#000000;stroke-width:15;stroke-linecap:round;stroke-linejoin:round;stroke-miterlimit:10;stroke-dasharray:none;stroke-opacity:1"
             id="path1171" /></g><g
           id="g1173"
           transform="translate(162.3989,66.1912)"><path
             d="M 0,0 11.335,11.336"
             style="fill:none;stroke:#000000;stroke-width:15;stroke-linecap:round;stroke-linejoin:round;stroke-miterlimit:10;stroke-dasharray:none;stroke-opacity:1"
             id="path1175" /></g><g
           id="g1177"
           transform="translate(434.4502,338.2424)"><path
             d="M 0,0 11.335,11.335"
             style="fill:none;stroke:#000000;stroke-width:15;stroke-linecap:round;stroke-linejoin:round;stroke-miterlimit:10;stroke-dasharray:none;stroke-opacity:1"
             id="path1179" /></g><g
           id="g1181"
           transform="translate(434.4502,77.5269)"><path
             d="M 0,0 11.335,-11.336"
             style="fill:none;stroke:#000000;stroke-width:15;stroke-linecap:round;stroke-linejoin:round;stroke-miterlimit:10;stroke-dasharray:none;stroke-opacity:1"
             id="path1183" /></g><g
           id="g1185"
           transform="translate(380.7764,22.7534)"><path
             d="M 0,0 -6.135,14.811"
             style="fill:none;stroke:#000000;stroke-width:15;stroke-linecap:round;stroke-linejoin:round;stroke-miterlimit:10;stroke-dasharray:none;stroke-opacity:1"
             id="path1187" /></g><g
           id="g1189"
           transform="translate(233.543,378.2053)"><path
             d="M 0,0 -6.135,14.811"
             style="fill:none;stroke:#000000;stroke-width:15;stroke-linecap:round;stroke-linejoin:round;stroke-miterlimit:10;stroke-dasharray:none;stroke-opacity:1"
             id="path1191" /></g><g
           id="g1193"
           transform="translate(118.9609,131.2007)"><path
             d="M 0,0 14.811,6.135"
             style="fill:none;stroke:#000000;stroke-width:15;stroke-linecap:round;stroke-linejoin:round;stroke-miterlimit:10;stroke-dasharray:none;stroke-opacity:1"
             id="path1195" /></g><g
           id="g1197"
           transform="translate(474.4131,278.4338)"><path
             d="M 0,0 14.811,6.135"
             style="fill:none;stroke:#000000;stroke-width:15;stroke-linecap:round;stroke-linejoin:round;stroke-miterlimit:10;stroke-dasharray:none;stroke-opacity:1"
             id="path1199" /></g><g
           id="g1201"
           transform="translate(227.4082,22.7534)"><path
             d="M 0,0 6.135,14.811"
             style="fill:none;stroke:#000000;stroke-width:15;stroke-linecap:round;stroke-linejoin:round;stroke-miterlimit:10;stroke-dasharray:none;stroke-opacity:1"
             id="path1203" /></g><g
           id="g1205"
           transform="translate(374.6416,378.2053)"><path
             d="M 0,0 6.135,14.811"
             style="fill:none;stroke:#000000;stroke-width:15;stroke-linecap:round;stroke-linejoin:round;stroke-miterlimit:10;stroke-dasharray:none;stroke-opacity:1"
             id="path1207" /></g><g
           id="g1209"
           transform="translate(118.9609,284.5684)"><path
             d="M 0,0 14.811,-6.135"
             style="fill:none;stroke:#000000;stroke-width:15;stroke-linecap:round;stroke-linejoin:round;stroke-miterlimit:10;stroke-dasharray:none;stroke-opacity:1"
             id="path1211" /></g><g
           id="g1213"
           transform="translate(474.4131,137.3354)"><path
             d="M 0,0 14.811,-6.135"
             style="fill:none;stroke:#000000;stroke-width:15;stroke-linecap:round;stroke-linejoin:round;stroke-miterlimit:10;stroke-dasharray:none;stroke-opacity:1"
             id="path1215" /></g><g
           id="g1217"
           transform="translate(343.1855,11.3503)"><path
             d="M 0,0 -3.127,15.723"
             style="fill:none;stroke:#000000;stroke-width:15;stroke-linecap:round;stroke-linejoin:round;stroke-miterlimit:10;stroke-dasharray:none;stroke-opacity:1"
             id="path1219" /></g><g
           id="g1221"
           transform="translate(268.1265,388.696)"><path
             d="M 0,0 -3.127,15.723"
             style="fill:none;stroke:#000000;stroke-width:15;stroke-linecap:round;stroke-linejoin:round;stroke-miterlimit:10;stroke-dasharray:none;stroke-opacity:1"
             id="path1223" /></g><g
           id="g1225"
           transform="translate(107.5581,168.7915)"><path
             d="M 0,0 15.723,3.127"
             style="fill:none;stroke:#000000;stroke-width:15;stroke-linecap:round;stroke-linejoin:round;stroke-miterlimit:10;stroke-dasharray:none;stroke-opacity:1"
             id="path1227" /></g><g
           id="g1229"
           transform="translate(484.9038,243.8501)"><path
             d="M 0,0 15.723,3.127"
             style="fill:none;stroke:#000000;stroke-width:15;stroke-linecap:round;stroke-linejoin:round;stroke-miterlimit:10;stroke-dasharray:none;stroke-opacity:1"
             id="path1231" /></g><g
           id="g1233"
           transform="translate(192.7646,41.271)"><path
             d="M 0,0 8.906,13.329"
             style="fill:none;stroke:#000000;stroke-width:15;stroke-linecap:round;stroke-linejoin:round;stroke-miterlimit:10;stroke-dasharray:none;stroke-opacity:1"
             id="path1235" /></g><g
           id="g1237"
           transform="translate(406.5137,361.1692)"><path
             d="M 0,0 8.906,13.329"
             style="fill:none;stroke:#000000;stroke-width:15;stroke-linecap:round;stroke-linejoin:round;stroke-miterlimit:10;stroke-dasharray:none;stroke-opacity:1"
             id="path1239" /></g><g
           id="g1241"
           transform="translate(457.377,105.4631)"><path
             d="M 0,0 13.329,-8.906"
             style="fill:none;stroke:#000000;stroke-width:15;stroke-linecap:round;stroke-linejoin:round;stroke-miterlimit:10;stroke-dasharray:none;stroke-opacity:1"
             id="path1243" /></g><g
           id="g1245"
           transform="translate(415.4199,41.271)"><path
             d="M 0,0 -8.906,13.329"
             style="fill:none;stroke:#000000;stroke-width:15;stroke-linecap:round;stroke-linejoin:round;stroke-miterlimit:10;stroke-dasharray:none;stroke-opacity:1"
             id="path1247" /></g><g
           id="g1249"
           transform="translate(137.4785,96.5569)"><path
             d="M 0,0 13.329,8.906"
             style="fill:none;stroke:#000000;stroke-width:15;stroke-linecap:round;stroke-linejoin:round;stroke-miterlimit:10;stroke-dasharray:none;stroke-opacity:1"
             id="path1251" /></g><g
           id="g1253"
           transform="translate(457.377,310.3062)"><path
             d="M 0,0 13.329,8.906"
             style="fill:none;stroke:#000000;stroke-width:15;stroke-linecap:round;stroke-linejoin:round;stroke-miterlimit:10;stroke-dasharray:none;stroke-opacity:1"
             id="path1255" /></g><g
           id="g1257"
           transform="translate(264.999,11.3503)"><path
             d="M 0,0 3.127,15.723"
             style="fill:none;stroke:#000000;stroke-width:15;stroke-linecap:round;stroke-linejoin:round;stroke-miterlimit:10;stroke-dasharray:none;stroke-opacity:1"
             id="path1259" /></g><g
           id="g1261"
           transform="translate(340.0581,388.696)"><path
             d="M 0,0 3.127,15.723"
             style="fill:none;stroke:#000000;stroke-width:15;stroke-linecap:round;stroke-linejoin:round;stroke-miterlimit:10;stroke-dasharray:none;stroke-opacity:1"
             id="path1263" /></g><g
           id="g1265"
           transform="translate(107.5581,246.9775)"><path
             d="M 0,0 15.723,-3.127"
             style="fill:none;stroke:#000000;stroke-width:15;stroke-linecap:round;stroke-linejoin:round;stroke-miterlimit:10;stroke-dasharray:none;stroke-opacity:1"
             id="path1267" /></g><g
           id="g1269"
           transform="translate(484.9038,171.9189)"><path
             d="M 0,0 15.723,-3.127"
             style="fill:none;stroke:#000000;stroke-width:15;stroke-linecap:round;stroke-linejoin:round;stroke-miterlimit:10;stroke-dasharray:none;stroke-opacity:1"
             id="path1271" /></g><g
           id="g1273"
           transform="translate(47.5601,464.3767)"><path
             d="M 0,0 H 0.08"
             style="fill:none;stroke:#000000;stroke-width:15;stroke-linecap:round;stroke-linejoin:round;stroke-miterlimit:10;stroke-dasharray:none;stroke-opacity:1"
             id="path1275" /></g><g
           id="g1277"
           transform="translate(304.1323,207.8845)"><path
             d="M 0,0 H -0.08"
             style="fill:none;stroke:#000000;stroke-width:15;stroke-linecap:round;stroke-linejoin:round;stroke-miterlimit:10;stroke-dasharray:none;stroke-opacity:1"
             id="path1279" /></g><g
           id="g1281"
           transform="translate(337.2407,230.4407)"><path
             d="m 0,0 c -6.43,9.311 -15.633,14.814 -25.414,16.671 -9.614,1.826 -18.704,5.746 -25.624,12.665 l -186.709,186.709 c -6.92,6.921 -10.84,16.012 -12.667,25.627 -1.857,9.782 -7.361,18.986 -16.674,25.415 -13.077,9.026 -30.908,9.346 -44.191,0.627 -22.1,-14.506 -24.334,-44.483 -6.7,-62.116 5.778,-5.779 12.877,-9.367 20.325,-10.835 9.85,-1.943 19.163,-5.98 26.263,-13.079 L -85.4,-4.307 c 7.099,-7.099 11.135,-16.412 13.078,-26.263 1.468,-7.447 5.056,-14.546 10.835,-20.325 17.634,-17.634 47.612,-15.399 62.119,6.704 C 9.35,-30.907 9.028,-13.075 0,0 Z"
             style="fill:none;stroke:#000000;stroke-width:15;stroke-linecap:round;stroke-linejoin:round;stroke-miterlimit:10;stroke-dasharray:none;stroke-opacity:1"
             id="path1283" /></g><g
           id="g1285"
           transform="translate(179.9248,295.8574)"><path
             d="m 0,0 c -1.646,-2.323 -3.229,-4.694 -4.746,-7.111 -5.584,-8.894 -1.4,-20.684 8.587,-23.93 l 42.496,-13.808"
             style="fill:none;stroke:#000000;stroke-width:15;stroke-linecap:round;stroke-linejoin:round;stroke-miterlimit:10;stroke-dasharray:none;stroke-opacity:1"
             id="path1287" /></g><g
           id="g1289"
           transform="translate(288.0615,259.7356)"><path
             d="M 0,0 V 80.545 C 0,91.032 -9.884,98.591 -20.074,96.109 -39.114,91.472 -56.741,83.248 -72.211,72.195"
             style="fill:none;stroke:#000000;stroke-width:15;stroke-linecap:round;stroke-linejoin:round;stroke-miterlimit:10;stroke-dasharray:none;stroke-opacity:1"
             id="path1291" /></g><g
           id="g1293"
           transform="translate(333.8384,235.3853)"><path
             d="m 0,0 90.581,29.432 c 9.987,3.245 14.17,15.035 8.586,23.929 -20.757,33.066 -53.819,57.603 -92.809,67.098 -10.189,2.482 -20.073,-5.076 -20.073,-15.563 v -93.83"
             style="fill:none;stroke:#000000;stroke-width:15;stroke-linecap:round;stroke-linejoin:round;stroke-miterlimit:10;stroke-dasharray:none;stroke-opacity:1"
             id="path1295" /></g><g
           id="g1297"
           transform="translate(262.0068,205.6833)"><path
             d="m 0,0 -88.675,28.81 c -9.828,3.193 -20.096,-3.595 -20.983,-13.891 -0.361,-4.191 -0.549,-8.431 -0.549,-12.718 0,-37.334 13.518,-71.441 35.842,-97.899 6.761,-8.013 19.219,-7.676 25.382,0.806 l 55.288,76.097"
             style="fill:none;stroke:#000000;stroke-width:15;stroke-linecap:round;stroke-linejoin:round;stroke-miterlimit:10;stroke-dasharray:none;stroke-opacity:1"
             id="path1299" /></g><g
           id="g1301"
           transform="translate(294.0801,167.8074)"><path
             d="m 0,0 -55.324,-76.148 c -6.119,-8.422 -2.695,-20.299 6.907,-24.321 17.988,-7.536 37.702,-11.746 58.429,-11.746 20.728,0 40.442,4.21 58.429,11.746 9.602,4.022 13.026,15.899 6.907,24.321 L 20.006,0.025"
             style="fill:none;stroke:#000000;stroke-width:15;stroke-linecap:round;stroke-linejoin:round;stroke-miterlimit:10;stroke-dasharray:none;stroke-opacity:1"
             id="path1303" /></g><g
           id="g1305"
           transform="translate(339.2227,187.7827)"><path
             d="m 0,0 55.939,-76.991 c 6.163,-8.482 18.621,-8.82 25.381,-0.807 22.326,26.459 35.842,60.566 35.842,97.9 0,4.286 -0.188,8.527 -0.549,12.718 -0.886,10.295 -11.155,17.084 -20.983,13.891 L 5.811,17.529"
             style="fill:none;stroke:#000000;stroke-width:15;stroke-linecap:round;stroke-linejoin:round;stroke-miterlimit:10;stroke-dasharray:none;stroke-opacity:1"
             id="path1307" /></g></g></g></g></svg>
