<?xml version="1.0" encoding="UTF-8"?>
<svg xmlns="http://www.w3.org/2000/svg" xmlns:xlink="http://www.w3.org/1999/xlink" version="1.1" id="Capa_1" x="0px" y="0px" viewBox="0 0 512 512" style="enable-background:new 0 0 512 512;" xml:space="preserve" width="512" height="512">
<g>
	<path style="fill:none;stroke:#000000;stroke-width:15;stroke-linecap:round;stroke-linejoin:round;stroke-miterlimit:10;" d="&#10;&#9;&#9;M412.575,322.671h22.415c4.637,0,8.677-3.152,9.799-7.647l5.677-22.719c1.283-5.101-2.576-10.041-7.839-10.041h-35.82"/>
	<path style="fill:none;stroke:#000000;stroke-width:15;stroke-linecap:round;stroke-linejoin:round;stroke-miterlimit:10;" d="&#10;&#9;&#9;M209.78,221.65h151.39c2.99,0,5.54,2.19,5.99,5.14l14.75,95.88"/>
	<path style="fill:none;stroke:#000000;stroke-width:15;stroke-linecap:round;stroke-linejoin:round;stroke-miterlimit:10;" d="&#10;&#9;&#9;M130.09,322.67l14.75-95.88c0.45-2.95,3-5.14,5.99-5.14h23.95"/>
	
		<line style="fill:none;stroke:#000000;stroke-width:15;stroke-linecap:round;stroke-linejoin:round;stroke-miterlimit:10;" x1="205.492" y1="352.976" x2="306.508" y2="352.976"/>
	
		<line style="fill:none;stroke:#000000;stroke-width:15;stroke-linecap:round;stroke-linejoin:round;stroke-miterlimit:10;" x1="306.508" y1="383.28" x2="205.492" y2="383.28"/>
	<path style="fill:none;stroke:#000000;stroke-width:15;stroke-linecap:round;stroke-linejoin:round;stroke-miterlimit:10;" d="&#10;&#9;&#9;M396.412,352.976h-18.183c-8.368,0-15.152,6.784-15.152,15.152s6.784,15.152,15.152,15.152h18.183&#10;&#9;&#9;c8.368,0,15.152-6.784,15.152-15.152S404.781,352.976,396.412,352.976z"/>
	<path style="fill:none;stroke:#000000;stroke-width:15;stroke-linecap:round;stroke-linejoin:round;stroke-miterlimit:10;" d="&#10;&#9;&#9;M115.587,352.976h18.183c8.368,0,15.152,6.784,15.152,15.152s-6.784,15.152-15.152,15.152h-18.183&#10;&#9;&#9;c-8.368,0-15.152-6.784-15.152-15.152S107.219,352.976,115.587,352.976z"/>
	<path style="fill:none;stroke:#000000;stroke-width:15;stroke-linecap:round;stroke-linejoin:round;stroke-miterlimit:10;" d="&#10;&#9;&#9;M99.424,322.671l15.723-102.198c2.578-16.755,16.994-29.123,33.946-29.123h213.813c16.952,0,31.368,12.368,33.946,29.123&#10;&#9;&#9;l15.723,102.198"/>
	<path style="fill:none;stroke:#000000;stroke-width:15;stroke-linecap:round;stroke-linejoin:round;stroke-miterlimit:10;" d="&#10;&#9;&#9;M70.13,413.585v-72.732c0-10.042,8.141-18.183,18.183-18.183h335.374c10.042,0,18.183,8.141,18.183,18.183v72.732"/>
	<path style="fill:none;stroke:#000000;stroke-width:15;stroke-linecap:round;stroke-linejoin:round;stroke-miterlimit:10;" d="&#10;&#9;&#9;M321.28,443.89h128.67c4.46,0,8.08-3.62,8.08-8.08v-14.14c0-4.47-3.62-8.08-8.08-8.08H62.05c-4.46,0-8.08,3.61-8.08,8.08v14.14&#10;&#9;&#9;c0,4.46,3.62,8.08,8.08,8.08h224.23"/>
	<path style="fill:none;stroke:#000000;stroke-width:15;stroke-linecap:round;stroke-linejoin:round;stroke-miterlimit:10;" d="&#10;&#9;&#9;M431.768,443.89v44.447c0,8.926-7.236,16.163-16.163,16.163h-58.589c-8.926,0-16.163-7.236-16.163-16.163V443.89"/>
	<path style="fill:none;stroke:#000000;stroke-width:15;stroke-linecap:round;stroke-linejoin:round;stroke-miterlimit:10;" d="&#10;&#9;&#9;M80.231,443.89v44.447c0,8.926,7.236,16.163,16.163,16.163h58.589c8.926,0,16.163-7.236,16.163-16.163V443.89"/>
	<path style="fill:none;stroke:#000000;stroke-width:15;stroke-linecap:round;stroke-linejoin:round;stroke-miterlimit:10;" d="&#10;&#9;&#9;M105.192,282.264h-35.82c-5.263,0-9.122,4.94-7.839,10.041l5.677,22.719c1.121,4.495,5.162,7.647,9.799,7.647h22.416"/>
	
		<circle style="fill:none;stroke:#000000;stroke-width:15;stroke-linecap:round;stroke-linejoin:round;stroke-miterlimit:10;" cx="256" cy="78.211" r="70.711"/>
	
		<circle style="fill:none;stroke:#000000;stroke-width:15;stroke-linecap:round;stroke-linejoin:round;stroke-miterlimit:10;" cx="256" cy="62.049" r="24.244"/>
	<path style="fill:none;stroke:#000000;stroke-width:15;stroke-linecap:round;stroke-linejoin:round;stroke-miterlimit:10;" d="&#10;&#9;&#9;M308.962,125.039c-7.125-22.465-28.14-38.747-52.963-38.747c-24.823,0-45.838,16.282-52.963,38.747"/>
	<path style="fill:none;stroke:#000000;stroke-width:15;stroke-linecap:round;stroke-linejoin:round;stroke-miterlimit:10;" d="&#10;&#9;&#9;M396.1,45.3c10-5.43,21.46-8.51,33.65-8.51c39.05,0,70.71,31.66,70.71,70.72c0,39.05-31.66,70.71-70.71,70.71&#10;&#9;&#9;s-70.71-31.66-70.71-70.71c0-14.27,4.23-27.56,11.51-38.67"/>
	
		<circle style="fill:none;stroke:#000000;stroke-width:15;stroke-linecap:round;stroke-linejoin:round;stroke-miterlimit:10;" cx="429.748" cy="91.343" r="24.244"/>
	<path style="fill:none;stroke:#000000;stroke-width:15;stroke-linecap:round;stroke-linejoin:round;stroke-miterlimit:10;" d="&#10;&#9;&#9;M482.71,154.334c-7.125-22.465-28.14-38.747-52.963-38.747c-24.823,0-45.838,16.282-52.963,38.747"/>
	
		<circle style="fill:none;stroke:#000000;stroke-width:15;stroke-linecap:round;stroke-linejoin:round;stroke-miterlimit:10;" cx="82.252" cy="107.506" r="70.711"/>
	
		<circle style="fill:none;stroke:#000000;stroke-width:15;stroke-linecap:round;stroke-linejoin:round;stroke-miterlimit:10;" cx="82.252" cy="91.343" r="24.244"/>
	<path style="fill:none;stroke:#000000;stroke-width:15;stroke-linecap:round;stroke-linejoin:round;stroke-miterlimit:10;" d="&#10;&#9;&#9;M135.214,154.334c-7.125-22.465-28.14-38.747-52.963-38.747c-24.823,0-45.838,16.282-52.963,38.747"/>
</g>















</svg>
