<?xml version="1.0" encoding="UTF-8"?>
<svg xmlns="http://www.w3.org/2000/svg" xmlns:xlink="http://www.w3.org/1999/xlink" version="1.1" id="Capa_1" x="0px" y="0px" viewBox="0 0 512 512" style="enable-background:new 0 0 512 512;" xml:space="preserve" width="512" height="512">
<g>
	
		<polyline style="fill:none;stroke:#000000;stroke-width:15;stroke-linecap:round;stroke-linejoin:round;stroke-miterlimit:10;" points="&#10;&#9;&#9;90.325,465.421 284.331,465.421 284.331,55.058 &#9;"/>
	<g>
		<path style="fill:none;stroke:#000000;stroke-width:15;stroke-linecap:round;stroke-linejoin:round;stroke-miterlimit:10;" d="&#10;&#9;&#9;&#9;M207.875,277.318H162.46c-1.672,0-3.172,1.026-3.778,2.584L137.93,333.21c-0.875,2.247,0.393,4.756,2.72,5.385l38.677,10.453&#10;&#9;&#9;&#9;c2.102,0.568,3.38,2.695,2.895,4.818l-9.992,43.691c-0.935,4.087,4.191,6.732,6.98,3.601l56.768-63.725&#10;&#9;&#9;&#9;c1.68-1.886,1.245-4.833-0.909-6.154l-31.315-19.195c-1.677-1.028-2.374-3.11-1.654-4.94l9.549-24.288&#10;&#9;&#9;&#9;C212.694,280.196,210.733,277.318,207.875,277.318z"/>
	</g>
	<path style="fill:none;stroke:#000000;stroke-width:15;stroke-linecap:round;stroke-linejoin:round;stroke-miterlimit:10;" d="&#10;&#9;&#9;M227.306,241.1h-80.424c-4.058,0-7.347-3.29-7.347-7.347V119.86c0-4.058,3.29-7.347,7.347-7.347h80.424&#10;&#9;&#9;c4.058,0,7.347,3.29,7.347,7.347v113.892C234.654,237.81,231.364,241.1,227.306,241.1z"/>
	<path style="fill:none;stroke:#000000;stroke-width:15;stroke-linecap:round;stroke-linejoin:round;stroke-miterlimit:10;" d="&#10;&#9;&#9;M478.078,37.385v69.243c0,2.098,1.701,3.798,3.798,3.798h18.826c2.098,0,3.798-1.701,3.798-3.798V37.385&#10;&#9;&#9;c0-2.098-1.701-3.798-3.798-3.798h-18.826C479.778,33.586,478.078,35.287,478.078,37.385z"/>
	
		<line style="fill:none;stroke:#000000;stroke-width:15;stroke-linecap:round;stroke-linejoin:round;stroke-miterlimit:10;" x1="443.399" y1="36.559" x2="447.632" y2="48.555"/>
	<path style="fill:none;stroke:#000000;stroke-width:15;stroke-linecap:round;stroke-linejoin:round;stroke-miterlimit:10;" d="&#10;&#9;&#9;M301.745,423.641h-17.414V310.026h17.414c5.371,0,9.725,4.354,9.725,9.725v94.165C311.47,419.287,307.116,423.641,301.745,423.641z&#10;&#9;&#9;"/>
	<path style="fill:none;stroke:#000000;stroke-width:15;stroke-linecap:round;stroke-linejoin:round;stroke-miterlimit:10;" d="&#10;&#9;&#9;M311.47,330.354h15.231c14.682,0,28.251,7.825,35.604,20.533l19.823,34.259c2.068,3.575,1.422,8.1-1.563,10.953l-8.794,8.403&#10;&#9;&#9;c-3.357,3.208-8.61,3.316-12.096,0.248l-9.028-7.944c-4.189-3.686-10.094-4.703-15.275-2.632l-23.903,10.359V330.354z"/>
	<path style="fill:none;stroke:#000000;stroke-width:15;stroke-linecap:round;stroke-linejoin:round;stroke-miterlimit:10;" d="&#10;&#9;&#9;M385.603,112.246l-18.056,20.283c-12.811,14.391-15.738,35.063-7.426,52.445l96.197,201.17c7.64,15.977,2.506,35.138-12.098,45.154&#10;&#9;&#9;l0,0c-15.149,10.39-35.695,7.688-47.642-6.267l-20.828-24.33"/>
	<path style="fill:none;stroke:#000000;stroke-width:15;stroke-linecap:round;stroke-linejoin:round;stroke-miterlimit:10;" d="&#10;&#9;&#9;M491.289,110.426l-3.231,22.145c-1.403,9.614-11.917,14.927-20.489,10.354l-6.076-3.242c-5.425-2.895-12.103-1.92-16.474,2.406l0,0&#10;&#9;&#9;c-5.649,5.59-14.809,5.377-20.192-0.47l-19.995-21.718"/>
	<g>
		
			<line style="fill:none;stroke:#000000;stroke-width:15;stroke-linecap:round;stroke-linejoin:round;stroke-miterlimit:10;" x1="169.005" y1="148.733" x2="205.183" y2="148.733"/>
		
			<line style="fill:none;stroke:#000000;stroke-width:15;stroke-linecap:round;stroke-linejoin:round;stroke-miterlimit:10;" x1="169.005" y1="176.806" x2="205.183" y2="176.806"/>
		
			<line style="fill:none;stroke:#000000;stroke-width:15;stroke-linecap:round;stroke-linejoin:round;stroke-miterlimit:10;" x1="169.005" y1="204.88" x2="205.183" y2="204.88"/>
	</g>
	<path style="fill:none;stroke:#000000;stroke-width:15;stroke-linecap:round;stroke-linejoin:round;stroke-miterlimit:10;" d="&#10;&#9;&#9;M401.177,77.46l-16.41,21.017c-1.659,2.124-2.03,4.982-0.971,7.46l6.091,14.239c1.991,4.654,7.963,5.978,11.733,2.601l17.81-15.947&#10;&#9;&#9;c3.463-3.101,7.969-4.779,12.616-4.698l46.032,0.798V41.083l-45.429,11.148c-3.6,0.883-7.045,2.222-10.263,3.962"/>
	<path style="fill:none;stroke:#000000;stroke-width:15;stroke-linecap:round;stroke-linejoin:round;stroke-miterlimit:10;" d="&#10;&#9;&#9;M170.427,504.5h146.607c3.934,0,7.123-3.189,7.123-7.123v-24.833c0-3.934-3.189-7.123-7.123-7.123H14.623&#10;&#9;&#9;c-3.934,0-7.123,3.189-7.123,7.123v24.833c0,3.934,3.189,7.123,7.123,7.123h126.804"/>
	<path style="fill:none;stroke:#000000;stroke-width:15;stroke-linecap:round;stroke-linejoin:round;stroke-miterlimit:10;" d="&#10;&#9;&#9;M123.152,43.214l-25.906,5.143c-28.926,5.743-49.92,31.314-49.92,60.804v356.261h43V109.16c0-9.033,6.432-16.867,15.292-18.626&#10;&#9;&#9;l204.478-40.591c7.461-1.481,12.309-8.73,10.828-16.191l-3.009-15.158c-1.481-7.461-8.73-12.309-16.191-10.828L152.152,37.457"/>
</g>















</svg>
