<?xml version="1.0" encoding="UTF-8" standalone="no"?>
<!-- Created with Inkscape (http://www.inkscape.org/) -->

<svg
   version="1.1"
   id="svg1401"
   xml:space="preserve"
   width="682.66669"
   height="682.66669"
   viewBox="0 0 682.66669 682.66669"
   xmlns="http://www.w3.org/2000/svg"
   xmlns:svg="http://www.w3.org/2000/svg"><defs
     id="defs1405"><clipPath
       clipPathUnits="userSpaceOnUse"
       id="clipPath1415"><path
         d="M 0,512 H 512 V 0 H 0 Z"
         id="path1413" /></clipPath></defs><g
     id="g1407"
     transform="matrix(1.3333333,0,0,-1.3333333,0,682.66667)"><g
       id="g1409"><g
         id="g1411"
         clip-path="url(#clipPath1415)"><g
           id="g1417"
           transform="translate(392.5195,353.6099)"><path
             d="M 0,0 C 23.101,-4.74 44.23,-10.79 58.271,-28.46 73.631,-47.79 82.95,-84.07 55.2,-158.78"
             style="fill:none;stroke:#000000;stroke-width:15;stroke-linecap:round;stroke-linejoin:round;stroke-miterlimit:10;stroke-dasharray:none;stroke-opacity:1"
             id="path1419" /></g><g
           id="g1421"
           transform="translate(271.7598,459.6802)"><path
             d="M 0,0 C 2.09,-20.33 8.37,-44.55 25.471,-64.67 42.971,-85.26 65.26,-93.85 87.92,-99.3"
             style="fill:none;stroke:#000000;stroke-width:15;stroke-linecap:round;stroke-linejoin:round;stroke-miterlimit:10;stroke-dasharray:none;stroke-opacity:1"
             id="path1423" /></g><g
           id="g1425"
           transform="translate(295.3398,497)"><path
             d="m 0,0 h 47.59 c 6.81,0 12.761,-4.58 14.5,-11.15 l 58.23,-219.47"
             style="fill:none;stroke:#000000;stroke-width:15;stroke-linecap:round;stroke-linejoin:round;stroke-miterlimit:10;stroke-dasharray:none;stroke-opacity:1"
             id="path1427" /></g><g
           id="g1429"
           transform="translate(295.1699,467)"><path
             d="M 0,0 H 36.22 L 91.34,-207.74"
             style="fill:none;stroke:#000000;stroke-width:15;stroke-linecap:round;stroke-linejoin:round;stroke-miterlimit:10;stroke-dasharray:none;stroke-opacity:1"
             id="path1431" /></g><g
           id="g1433"
           transform="translate(278.6133,459.6826)"><path
             d="m 0,0 h -47.002 c -12.376,0 -22.409,10.033 -22.409,22.409 0,12.376 10.033,22.408 22.409,22.408 H 0 c 12.376,0 22.409,-10.032 22.409,-22.408 C 22.409,10.033 12.376,0 0,0 Z"
             style="fill:none;stroke:#000000;stroke-width:15;stroke-linecap:round;stroke-linejoin:round;stroke-miterlimit:10;stroke-dasharray:none;stroke-opacity:1"
             id="path1435" /></g><g
           id="g1437"
           transform="translate(324.8604,97.4102)"><path
             d="m 0,0 25.72,57.39 c 3.219,7.19 10.37,11.82 18.25,11.82 h 26.95"
             style="fill:none;stroke:#000000;stroke-width:15;stroke-linecap:round;stroke-linejoin:round;stroke-miterlimit:10;stroke-dasharray:none;stroke-opacity:1"
             id="path1439" /></g><g
           id="g1441"
           transform="translate(7.5,149.3398)"><path
             d="m 0,0 c 17.02,12.99 38.26,20.7 61.27,20.7 45.9,0 84.76,-30.69 97.14,-72.63"
             style="fill:none;stroke:#000000;stroke-width:15;stroke-linecap:round;stroke-linejoin:round;stroke-miterlimit:10;stroke-dasharray:none;stroke-opacity:1"
             id="path1443" /></g><g
           id="g1445"
           transform="translate(465.1602,126)"><path
             d="m 0,0 -34.43,135.89 c -1.08,4.26 -5.39,6.85 -9.65,5.81 l -40.1,-9.79 c -4.32,-1.05 -6.95,-5.42 -5.86,-9.73 L -57.271,-7.17"
             style="fill:none;stroke:#000000;stroke-width:15;stroke-linecap:round;stroke-linejoin:round;stroke-miterlimit:10;stroke-dasharray:none;stroke-opacity:1"
             id="path1447" /></g><g
           id="g1449"
           transform="translate(389.0498,97.4102)"><path
             d="M 0,0 H -266.1"
             style="fill:none;stroke:#000000;stroke-width:15;stroke-linecap:round;stroke-linejoin:round;stroke-miterlimit:10;stroke-dasharray:none;stroke-opacity:1"
             id="path1451" /></g><g
           id="g1453"
           transform="translate(265.1699,40.1299)"><path
             d="M 0,0 H -142.22"
             style="fill:none;stroke:#000000;stroke-width:15;stroke-linecap:round;stroke-linejoin:round;stroke-miterlimit:10;stroke-dasharray:none;stroke-opacity:1"
             id="path1455" /></g><g
           id="g1457"
           transform="translate(389.0498,40.1299)"><path
             d="M 0,0 H -88.88"
             style="fill:none;stroke:#000000;stroke-width:15;stroke-linecap:round;stroke-linejoin:round;stroke-miterlimit:10;stroke-dasharray:none;stroke-opacity:1"
             id="path1459" /></g><g
           id="g1461"
           transform="translate(504.5,68.771)"><path
             d="m 0,0 c 0,-33.839 -27.432,-61.271 -61.271,-61.271 -33.838,0 -61.271,27.432 -61.271,61.271 0,33.839 27.433,61.271 61.271,61.271 C -27.432,61.271 0,33.839 0,0 Z"
             style="fill:none;stroke:#000000;stroke-width:15;stroke-linecap:round;stroke-linejoin:round;stroke-miterlimit:10;stroke-dasharray:none;stroke-opacity:1"
             id="path1463" /></g><g
           id="g1465"
           transform="translate(443.2295,37.5)"><path
             d="m 0,0 c -17.243,0 -31.271,14.028 -31.271,31.271 0,17.243 14.028,31.271 31.271,31.271 17.242,0 31.271,-14.028 31.271,-31.271 C 31.271,14.028 17.242,0 0,0 Z"
             style="fill:none;stroke:#000000;stroke-width:15;stroke-linecap:round;stroke-linejoin:round;stroke-miterlimit:10;stroke-dasharray:none;stroke-opacity:1"
             id="path1467" /></g><g
           id="g1469"
           transform="translate(130.0415,68.771)"><path
             d="m 0,0 c 0,-33.839 -27.432,-61.271 -61.271,-61.271 -33.838,0 -61.271,27.432 -61.271,61.271 0,33.839 27.433,61.271 61.271,61.271 C -27.432,61.271 0,33.839 0,0 Z"
             style="fill:none;stroke:#000000;stroke-width:15;stroke-linecap:round;stroke-linejoin:round;stroke-miterlimit:10;stroke-dasharray:none;stroke-opacity:1"
             id="path1471" /></g><g
           id="g1473"
           transform="translate(68.7715,37.5)"><path
             d="m 0,0 c -17.243,0 -31.271,14.028 -31.271,31.271 0,17.243 14.028,31.271 31.271,31.271 17.242,0 31.271,-14.028 31.271,-31.271 C 31.271,14.028 17.242,0 0,0 Z"
             style="fill:none;stroke:#000000;stroke-width:15;stroke-linecap:round;stroke-linejoin:round;stroke-miterlimit:10;stroke-dasharray:none;stroke-opacity:1"
             id="path1475" /></g><g
           id="g1477"
           transform="translate(453.2295,68.771)"><path
             d="m 0,0 c 0,-5.523 -4.478,-10 -10,-10 -5.523,0 -10,4.477 -10,10 0,5.522 4.477,10 10,10 C -4.478,10 0,5.522 0,0"
             style="fill:#000000;fill-opacity:1;fill-rule:nonzero;stroke:none"
             id="path1479" /></g><g
           id="g1481"
           transform="translate(78.771,68.771)"><path
             d="m 0,0 c 0,-5.523 -4.478,-10 -10,-10 -5.523,0 -10,4.477 -10,10 0,5.522 4.477,10 10,10 C -4.478,10 0,5.522 0,0"
             style="fill:#000000;fill-opacity:1;fill-rule:nonzero;stroke:none"
             id="path1483" /></g><g
           id="g1485"
           transform="translate(176.9883,423.5449)"><path
             d="m 0,0 c 57.262,-7.355 101.512,-56.282 101.512,-115.545 0,-64.341 -52.159,-116.5 -116.5,-116.5 -64.342,0 -116.5,52.159 -116.5,116.5 0,57.442 41.573,105.175 96.273,114.751"
             style="fill:none;stroke:#000000;stroke-width:15;stroke-linecap:round;stroke-linejoin:round;stroke-miterlimit:10;stroke-dasharray:none;stroke-opacity:1"
             id="path1487" /></g><g
           id="g1489"
           transform="translate(166.7603,324.7163)"><path
             d="m 0,0 h 39.339 c 3.503,0 5.807,-3.655 4.296,-6.815 L 4.296,-89.104 c -2.187,-4.574 -9.058,-3.016 -9.058,2.054 v 48.889 c 0,2.632 -2.134,4.764 -4.765,4.762 l -39.329,-0.028 c -3.505,-0.003 -5.811,3.654 -4.3,6.815 l 39.337,82.283 c 2.187,4.575 9.057,3.017 9.057,-2.054 V 4.762 C -4.762,2.132 -2.63,0 0,0 Z"
             style="fill:none;stroke:#000000;stroke-width:15;stroke-linecap:round;stroke-linejoin:round;stroke-miterlimit:10;stroke-dasharray:none;stroke-opacity:1"
             id="path1491" /></g></g></g></g></svg>
