<?xml version="1.0" encoding="UTF-8" standalone="no"?>
<!-- Created with Inkscape (http://www.inkscape.org/) -->

<svg
   version="1.1"
   id="svg3372"
   xml:space="preserve"
   width="682.66669"
   height="682.66669"
   viewBox="0 0 682.66669 682.66669"
   xmlns="http://www.w3.org/2000/svg"
   xmlns:svg="http://www.w3.org/2000/svg"><defs
     id="defs3376"><clipPath
       clipPathUnits="userSpaceOnUse"
       id="clipPath3386"><path
         d="M 0,512 H 512 V 0 H 0 Z"
         id="path3384" /></clipPath></defs><g
     id="g3378"
     transform="matrix(1.3333333,0,0,-1.3333333,0,682.66667)"><g
       id="g3380"><g
         id="g3382"
         clip-path="url(#clipPath3386)"><g
           id="g3388"
           transform="translate(381.3652,217.2764)"><path
             d="M 0,0 H 29.468 C 66.27,0 86.849,42.449 64.055,71.341 L -94.669,272.524 c -15.44,19.571 -45.1,19.605 -60.584,0.071 L -314.722,71.42 C -337.612,42.544 -317.047,0 -280.199,0 h 123.743 l 22.228,-41.511 c 3.662,-6.839 13.467,-6.839 17.129,0 L -94.87,0 h 59.811"
             style="fill:none;stroke:#000000;stroke-width:15;stroke-linecap:round;stroke-linejoin:round;stroke-miterlimit:10;stroke-dasharray:none;stroke-opacity:1"
             id="path3390" /></g><g
           id="g3392"
           transform="translate(386.2007,48.0166)"><path
             d="m 0,0 c 0,-22.377 -18.14,-40.517 -40.517,-40.517 -22.377,0 -40.517,18.14 -40.517,40.517 0,22.377 18.14,40.518 40.517,40.518 C -18.14,40.518 0,22.377 0,0 Z"
             style="fill:none;stroke:#000000;stroke-width:15;stroke-linecap:round;stroke-linejoin:round;stroke-miterlimit:10;stroke-dasharray:none;stroke-opacity:1"
             id="path3394" /></g><g
           id="g3396"
           transform="translate(206.2368,48.0166)"><path
             d="m 0,0 c 0,-22.377 -18.14,-40.517 -40.517,-40.517 -22.377,0 -40.517,18.14 -40.517,40.517 0,22.377 18.14,40.518 40.517,40.518 C -18.14,40.518 0,22.377 0,0 Z"
             style="fill:none;stroke:#000000;stroke-width:15;stroke-linecap:round;stroke-linejoin:round;stroke-miterlimit:10;stroke-dasharray:none;stroke-opacity:1"
             id="path3398" /></g><g
           id="g3400"
           transform="translate(238.6001,48.0137)"><path
             d="M 0,0 79.389,78.733 -17.924,57.644 -18.096,57.603 -72.88,0.003"
             style="fill:none;stroke:#000000;stroke-width:15;stroke-linecap:round;stroke-linejoin:round;stroke-miterlimit:10;stroke-dasharray:none;stroke-opacity:1"
             id="path3402" /></g><g
           id="g3404"
           transform="translate(208.855,142.6377)"><path
             d="M 0,0 29.744,-94.621 H -2.618"
             style="fill:none;stroke:#000000;stroke-width:15;stroke-linecap:round;stroke-linejoin:round;stroke-miterlimit:10;stroke-dasharray:none;stroke-opacity:1"
             id="path3406" /></g><g
           id="g3408"
           transform="translate(345.6836,48.0166)"><path
             d="m 0,0 -27.694,78.727 -8.067,22.395 h 24.795 c 8.357,0 15.132,-6.774 15.132,-15.132"
             style="fill:none;stroke:#000000;stroke-width:15;stroke-linecap:round;stroke-linejoin:round;stroke-miterlimit:10;stroke-dasharray:none;stroke-opacity:1"
             id="path3410" /></g><g
           id="g3412"
           transform="translate(194.1411,142.6377)"><path
             d="M 0,0 H 37.33"
             style="fill:none;stroke:#000000;stroke-width:15;stroke-linecap:round;stroke-linejoin:round;stroke-miterlimit:10;stroke-dasharray:none;stroke-opacity:1"
             id="path3414" /></g><g
           id="g3416"
           transform="translate(238.5986,48.0166)"><path
             d="M 0,0 12.785,-12.785"
             style="fill:none;stroke:#000000;stroke-width:15;stroke-linecap:round;stroke-linejoin:round;stroke-miterlimit:10;stroke-dasharray:none;stroke-opacity:1"
             id="path3418" /></g><g
           id="g3420"
           transform="translate(199.4189,345.5742)"><path
             d="m 0,0 h 32.195 v -79.957 c 0,-8.891 -7.207,-16.098 -16.097,-16.098 C 7.207,-96.055 0,-88.848 0,-79.957 v 44.888"
             style="fill:none;stroke:#000000;stroke-width:15;stroke-linecap:round;stroke-linejoin:round;stroke-miterlimit:10;stroke-dasharray:none;stroke-opacity:1"
             id="path3422" /></g><g
           id="g3424"
           transform="translate(191.9912,345.5742)"><path
             d="M 0,0 H 47.051"
             style="fill:none;stroke:#000000;stroke-width:15;stroke-linecap:round;stroke-linejoin:round;stroke-miterlimit:10;stroke-dasharray:none;stroke-opacity:1"
             id="path3426" /></g><g
           id="g3428"
           transform="translate(215.5166,420.168)"><path
             d="M 0,0 V -74.594"
             style="fill:none;stroke:#000000;stroke-width:15;stroke-linecap:round;stroke-linejoin:round;stroke-miterlimit:10;stroke-dasharray:none;stroke-opacity:1"
             id="path3430" /></g><g
           id="g3432"
           transform="translate(301.8184,420.168)"><path
             d="m 0,0 v -18.68 c 0,-6.488 -5.26,-11.748 -11.748,-11.748 H -23.66 c -6.487,0 -11.747,5.26 -11.747,11.748 V 0"
             style="fill:none;stroke:#000000;stroke-width:15;stroke-linecap:round;stroke-linejoin:round;stroke-miterlimit:10;stroke-dasharray:none;stroke-opacity:1"
             id="path3434" /></g><g
           id="g3436"
           transform="translate(301.8184,250.3848)"><path
             d="m 0,0 v 18.681 c 0,6.488 -5.26,11.747 -11.748,11.747 H -23.66 c -6.487,0 -11.747,-5.259 -11.747,-11.747 V 0"
             style="fill:none;stroke:#000000;stroke-width:15;stroke-linecap:round;stroke-linejoin:round;stroke-miterlimit:10;stroke-dasharray:none;stroke-opacity:1"
             id="path3438" /></g><g
           id="g3440"
           transform="translate(284.1147,389.7402)"><path
             d="M 0,0 V -108.928"
             style="fill:none;stroke:#000000;stroke-width:15;stroke-linecap:round;stroke-linejoin:round;stroke-miterlimit:10;stroke-dasharray:none;stroke-opacity:1"
             id="path3442" /></g></g></g></g></svg>
