<?xml version="1.0" encoding="UTF-8" standalone="no"?>
<!-- Created with Inkscape (http://www.inkscape.org/) -->

<svg
   version="1.1"
   id="svg2538"
   xml:space="preserve"
   width="682.66669"
   height="682.66669"
   viewBox="0 0 682.66669 682.66669"
   xmlns="http://www.w3.org/2000/svg"
   xmlns:svg="http://www.w3.org/2000/svg"><defs
     id="defs2542"><clipPath
       clipPathUnits="userSpaceOnUse"
       id="clipPath2564"><path
         d="M 0,512 H 512 V 0 H 0 Z"
         id="path2562" /></clipPath></defs><g
     id="g2544"
     transform="matrix(1.3333333,0,0,-1.3333333,0,682.66667)"><g
       id="g2546"
       transform="translate(154.7349,83.3833)"><path
         d="M 0,0 -48.72,-39.267"
         style="fill:none;stroke:#000000;stroke-width:15;stroke-linecap:round;stroke-linejoin:round;stroke-miterlimit:10;stroke-dasharray:none;stroke-opacity:1"
         id="path2548" /></g><g
       id="g2550"
       transform="translate(238.4846,150.8831)"><path
         d="M 0,0 -48.719,-39.266"
         style="fill:none;stroke:#000000;stroke-width:15;stroke-linecap:round;stroke-linejoin:round;stroke-miterlimit:10;stroke-dasharray:none;stroke-opacity:1"
         id="path2552" /></g><g
       id="g2554"
       transform="translate(273.5154,150.8831)"><path
         d="M 0,0 132.469,-106.766"
         style="fill:none;stroke:#000000;stroke-width:15;stroke-linecap:round;stroke-linejoin:round;stroke-miterlimit:10;stroke-dasharray:none;stroke-opacity:1"
         id="path2556" /></g><g
       id="g2558"><g
         id="g2560"
         clip-path="url(#clipPath2564)"><g
           id="g2566"
           transform="translate(256,504.5)"><path
             d="m 0,0 c -57.438,0 -104,-46.562 -104,-104 0,-23.865 8.044,-45.849 21.561,-63.399 L 0,-287 82.439,-167.399 C 95.956,-149.849 104,-127.865 104,-104 104,-46.562 57.438,0 0,0 Z"
             style="fill:none;stroke:#000000;stroke-width:15;stroke-linecap:round;stroke-linejoin:round;stroke-miterlimit:10;stroke-dasharray:none;stroke-opacity:1"
             id="path2568" /></g><g
           id="g2570"
           transform="translate(194.1594,441.1274)"><path
             d="m 0,0 c -7.678,-11.664 -12.159,-25.619 -12.159,-40.627 0,-40.87 33.131,-74 74,-74 40.869,0 74,33.13 74,74 0,40.869 -33.131,74 -74,74 -15.009,0 -28.964,-4.482 -40.628,-12.16"
             style="fill:none;stroke:#000000;stroke-width:15;stroke-linecap:round;stroke-linejoin:round;stroke-miterlimit:10;stroke-dasharray:none;stroke-opacity:1"
             id="path2572" /></g><g
           id="g2574"
           transform="translate(278.5,165)"><path
             d="M 0,0 C 0,12.426 -10.074,22.5 -22.5,22.5 -34.926,22.5 -45,12.426 -45,0 -45,-12.426 -34.926,-22.5 -22.5,-22.5 -10.074,-22.5 0,-12.426 0,0 Z"
             style="fill:none;stroke:#000000;stroke-width:15;stroke-linecap:round;stroke-linejoin:round;stroke-miterlimit:10;stroke-dasharray:none;stroke-opacity:1"
             id="path2576" /></g><g
           id="g2578"
           transform="translate(169.5001,225.5)"><path
             d="m 0,0 c 0,44.735 -36.265,81 -81,81 -44.735,0 -81,-36.265 -81,-81 0,-17.04 5.273,-32.842 14.26,-45.888 L -81,-143 -14.26,-45.888 C -5.273,-32.842 0,-17.04 0,0 Z"
             style="fill:none;stroke:#000000;stroke-width:15;stroke-linecap:round;stroke-linejoin:round;stroke-miterlimit:10;stroke-dasharray:none;stroke-opacity:1"
             id="path2580" /></g><g
           id="g2582"
           transform="translate(43.4258,249.3611)"><path
             d="m 0,0 c -3.778,-7.121 -5.926,-15.239 -5.926,-23.861 0,-28.167 22.834,-51 51,-51 28.167,0 51,22.833 51,51 0,28.166 -22.833,51 -51,51 -8.622,0 -16.74,-2.148 -23.861,-5.926"
             style="fill:none;stroke:#000000;stroke-width:15;stroke-linecap:round;stroke-linejoin:round;stroke-miterlimit:10;stroke-dasharray:none;stroke-opacity:1"
             id="path2584" /></g><g
           id="g2586"
           transform="translate(111.0001,30)"><path
             d="M 0,0 C 0,12.426 -10.074,22.5 -22.5,22.5 -34.926,22.5 -45,12.426 -45,0 -45,-12.426 -34.926,-22.5 -22.5,-22.5 -10.074,-22.5 0,-12.426 0,0 Z"
             style="fill:none;stroke:#000000;stroke-width:15;stroke-linecap:round;stroke-linejoin:round;stroke-miterlimit:10;stroke-dasharray:none;stroke-opacity:1"
             id="path2588" /></g><g
           id="g2590"
           transform="translate(504.4999,225.5)"><path
             d="m 0,0 c 0,44.735 -36.265,81 -81,81 -44.735,0 -81,-36.265 -81,-81 0,-17.04 5.273,-32.842 14.26,-45.888 L -81,-143 -14.26,-45.888 C -5.273,-32.842 0,-17.04 0,0 Z"
             style="fill:none;stroke:#000000;stroke-width:15;stroke-linecap:round;stroke-linejoin:round;stroke-miterlimit:10;stroke-dasharray:none;stroke-opacity:1"
             id="path2592" /></g><g
           id="g2594"
           transform="translate(378.4256,249.3611)"><path
             d="m 0,0 c -3.778,-7.121 -5.926,-15.239 -5.926,-23.861 0,-28.167 22.834,-51 51,-51 28.167,0 51,22.833 51,51 0,28.166 -22.833,51 -51,51 -8.622,0 -16.74,-2.148 -23.861,-5.926"
             style="fill:none;stroke:#000000;stroke-width:15;stroke-linecap:round;stroke-linejoin:round;stroke-miterlimit:10;stroke-dasharray:none;stroke-opacity:1"
             id="path2596" /></g><g
           id="g2598"
           transform="translate(445.9999,30)"><path
             d="M 0,0 C 0,12.426 -10.074,22.5 -22.5,22.5 -34.926,22.5 -45,12.426 -45,0 -45,-12.426 -34.926,-22.5 -22.5,-22.5 -10.074,-22.5 0,-12.426 0,0 Z"
             style="fill:none;stroke:#000000;stroke-width:15;stroke-linecap:round;stroke-linejoin:round;stroke-miterlimit:10;stroke-dasharray:none;stroke-opacity:1"
             id="path2600" /></g><g
           id="g2602"
           transform="translate(193.9851,91.6607)"><path
             d="M 0,0 207.787,-55.823"
             style="fill:none;stroke:#000000;stroke-width:15;stroke-linecap:round;stroke-linejoin:round;stroke-miterlimit:10;stroke-dasharray:none;stroke-opacity:1"
             id="path2604" /></g><g
           id="g2606"
           transform="translate(194.75,97.5)"><path
             d="M 0,0 C 0,12.426 -10.074,22.5 -22.5,22.5 -34.926,22.5 -45,12.426 -45,0 -45,-12.426 -34.926,-22.5 -22.5,-22.5 -10.074,-22.5 0,-12.426 0,0 Z"
             style="fill:none;stroke:#000000;stroke-width:15;stroke-linecap:round;stroke-linejoin:round;stroke-miterlimit:10;stroke-dasharray:none;stroke-opacity:1"
             id="path2608" /></g></g></g></g></svg>
