<?xml version="1.0" encoding="UTF-8" standalone="no"?>
<!-- Created with Inkscape (http://www.inkscape.org/) -->

<svg
   version="1.1"
   id="svg753"
   xml:space="preserve"
   width="682.66669"
   height="682.66669"
   viewBox="0 0 682.66669 682.66669"
   xmlns="http://www.w3.org/2000/svg"
   xmlns:svg="http://www.w3.org/2000/svg"><defs
     id="defs757"><clipPath
       clipPathUnits="userSpaceOnUse"
       id="clipPath767"><path
         d="M 0,512 H 512 V 0 H 0 Z"
         id="path765" /></clipPath></defs><g
     id="g759"
     transform="matrix(1.3333333,0,0,-1.3333333,0,682.66667)"><g
       id="g761"><g
         id="g763"
         clip-path="url(#clipPath767)"><g
           id="g769"
           transform="translate(146.2124,7.5)"><path
             d="m 0,0 h -29.941 c -16.845,0 -30.501,13.656 -30.501,30.501 v 134.08 H 30.502 V 30.501 C 30.502,13.656 16.846,0 0,0 Z"
             style="fill:none;stroke:#000000;stroke-width:15;stroke-linecap:round;stroke-linejoin:round;stroke-miterlimit:10;stroke-dasharray:none;stroke-opacity:1"
             id="path771" /></g><g
           id="g773"
           transform="translate(155.4854,204.4062)"><path
             d="M 0,0 H -48.486 L -69.715,-32.325 H 21.229 Z"
             style="fill:none;stroke:#000000;stroke-width:15;stroke-linecap:round;stroke-linejoin:round;stroke-miterlimit:10;stroke-dasharray:none;stroke-opacity:1"
             id="path775" /></g><g
           id="g777"
           transform="translate(166.8213,204.4062)"><path
             d="m 0,0 h -71.158 c -5.464,0 -9.893,4.429 -9.893,9.893 v 22.808 c 0,5.464 4.429,9.893 9.893,9.893 H 0 c 5.464,0 9.893,-4.429 9.893,-9.893 V 9.893 C 9.893,4.429 5.464,0 0,0 Z"
             style="fill:none;stroke:#000000;stroke-width:15;stroke-linecap:round;stroke-linejoin:round;stroke-miterlimit:10;stroke-dasharray:none;stroke-opacity:1"
             id="path779" /></g><g
           id="g781"
           transform="translate(114.5259,302.02)"><path
             d="m 0,0 v -55.02 h 33.433 v 190.67 l 8.465,18.401 c 2.387,5.187 2.795,11.069 1.147,16.536 L 34.8,197.941 c -0.812,2.695 -3.293,4.539 -6.107,4.539 H 4.74 c -2.814,0 -5.296,-1.844 -6.108,-4.539 l -8.245,-27.354 c -1.648,-5.467 -1.24,-11.349 1.147,-16.536 L 0,135.65 V 35.388"
             style="fill:none;stroke:#000000;stroke-width:15;stroke-linecap:round;stroke-linejoin:round;stroke-miterlimit:10;stroke-dasharray:none;stroke-opacity:1"
             id="path783" /></g><g
           id="g785"
           transform="translate(252.6499,318.9902)"><path
             d="m 0,0 v 168.51 c 0,9.39 7.61,17 17,17 h 80.39 c 5.19,0 9.39,-4.2 9.39,-9.39 V 160.9 c 0,-5.19 -4.2,-9.39 -9.39,-9.39 H 34 V 0"
             style="fill:none;stroke:#000000;stroke-width:15;stroke-linecap:round;stroke-linejoin:round;stroke-miterlimit:10;stroke-dasharray:none;stroke-opacity:1"
             id="path787" /></g><g
           id="g789"
           transform="translate(286.6499,243.7002)"><path
             d="m 0,0 v -226.81 c 0,-5.19 -4.2,-9.39 -9.39,-9.39 h -15.22 c -5.19,0 -9.39,4.2 -9.39,9.39 V 0"
             style="fill:none;stroke:#000000;stroke-width:15;stroke-linecap:round;stroke-linejoin:round;stroke-miterlimit:10;stroke-dasharray:none;stroke-opacity:1"
             id="path791" /></g><g
           id="g793"
           transform="translate(317.21,318.9902)"><path
             d="m 0,0 v 107.56 c 0,7.18 5.82,13 13,13 h 62.05 c 5.19,0 9.39,-4.2 9.39,-9.39 v -7.22 c 0,-5.19 -4.2,-9.39 -9.39,-9.39 H 26 V 0"
             style="fill:none;stroke:#000000;stroke-width:15;stroke-linecap:round;stroke-linejoin:round;stroke-miterlimit:10;stroke-dasharray:none;stroke-opacity:1"
             id="path795" /></g><g
           id="g797"
           transform="translate(343.21,208.5884)"><path
             d="m 0,0 v -191.698 c 0,-5.19 -4.2,-9.39 -9.39,-9.39 h -7.22 c -5.19,0 -9.39,4.2 -9.39,9.39 v 226.81"
             style="fill:none;stroke:#000000;stroke-width:15;stroke-linecap:round;stroke-linejoin:round;stroke-miterlimit:10;stroke-dasharray:none;stroke-opacity:1"
             id="path799" /></g><g
           id="g801"
           transform="translate(373.3799,7.5)"><path
             d="M 0,0 V 236.2"
             style="fill:none;stroke:#000000;stroke-width:15;stroke-linecap:round;stroke-linejoin:round;stroke-miterlimit:10;stroke-dasharray:none;stroke-opacity:1"
             id="path803" /></g><g
           id="g805"
           transform="translate(373.3799,318.9902)"><path
             d="m 0,0 v 46.98 c 0,6.64 5.39,12.03 12.03,12.03 h 40.82"
             style="fill:none;stroke:#000000;stroke-width:15;stroke-linecap:round;stroke-linejoin:round;stroke-miterlimit:10;stroke-dasharray:none;stroke-opacity:1"
             id="path807" /></g><g
           id="g809"
           transform="translate(386.46,243.7046)"><path
             d="m 0,0 h -148.067 c -7.819,0 -14.158,6.339 -14.158,14.158 v 46.966 c 0,7.818 6.339,14.157 14.158,14.157 H 0 c 7.819,0 14.158,-6.339 14.158,-14.157 V 14.158 C 14.158,6.339 7.819,0 0,0 Z"
             style="fill:none;stroke:#000000;stroke-width:15;stroke-linecap:round;stroke-linejoin:round;stroke-miterlimit:10;stroke-dasharray:none;stroke-opacity:1"
             id="path811" /></g><g
           id="g813"
           transform="translate(297.9561,281.3979)"><path
             d="M 0,0 H 28.941"
             style="fill:none;stroke:#000000;stroke-width:15;stroke-linecap:round;stroke-linejoin:round;stroke-miterlimit:10;stroke-dasharray:none;stroke-opacity:1"
             id="path815" /></g><g
           id="g817"
           transform="translate(131.2422,172.0811)"><path
             d="M 0,0 V -109.593"
             style="fill:none;stroke:#000000;stroke-width:15;stroke-linecap:round;stroke-linejoin:round;stroke-miterlimit:10;stroke-dasharray:none;stroke-opacity:1"
             id="path819" /></g></g></g></g></svg>
