<?xml version="1.0" encoding="UTF-8"?>
<svg xmlns="http://www.w3.org/2000/svg" xmlns:xlink="http://www.w3.org/1999/xlink" version="1.1" id="Capa_1" x="0px" y="0px" viewBox="0 0 512 512" style="enable-background:new 0 0 512 512;" xml:space="preserve" width="512" height="512">
<g>
	<g>
		<g>
			
				<line style="fill:none;stroke:#000000;stroke-width:15;stroke-linecap:round;stroke-linejoin:round;stroke-miterlimit:10;" x1="359.035" y1="402.169" x2="381.949" y2="437.022"/>
			<path style="fill:none;stroke:#000000;stroke-width:15;stroke-linecap:round;stroke-linejoin:round;stroke-miterlimit:10;" d="&#10;&#9;&#9;&#9;&#9;M401.424,466.643l20.135,30.626c2.041,3.104-0.186,7.232-3.9,7.232h-29.862c-1.577,0-3.047-0.796-3.908-2.116l-58.61-89.773"/>
		</g>
		<g>
			<path style="fill:none;stroke:#000000;stroke-width:15;stroke-linecap:round;stroke-linejoin:round;stroke-miterlimit:10;" d="&#10;&#9;&#9;&#9;&#9;M152.965,402.169l-62.524,95.099c-2.041,3.104,0.186,7.232,3.9,7.232h29.862c1.577,0,3.046-0.796,3.908-2.116l60.026-91.941"/>
		</g>
	</g>
	
		<line style="fill:none;stroke:#000000;stroke-width:15;stroke-linecap:round;stroke-linejoin:round;stroke-miterlimit:10;" x1="147.355" y1="478.581" x2="364.645" y2="478.581"/>
	
		<line style="fill:none;stroke:#000000;stroke-width:15;stroke-linecap:round;stroke-linejoin:round;stroke-miterlimit:10;" x1="167.305" y1="445.091" x2="344.695" y2="445.091"/>
	<path style="fill:none;stroke:#000000;stroke-width:15;stroke-linecap:round;stroke-linejoin:round;stroke-miterlimit:10;" d="&#10;&#9;&#9;M86.17,313.147c3.273,15.004,8.701,29.553,16.195,43.176l0,0c18.427,33.497,53.627,54.309,91.859,54.309h123.554&#10;&#9;&#9;c38.231,0,73.432-20.811,91.859-54.309l0,0c16.473-29.946,22.962-64.366,18.524-98.254L400.516,47.014&#10;&#9;&#9;C397.555,24.407,378.29,7.5,355.49,7.5H156.51c-22.8,0-42.065,16.907-45.026,39.514L83.84,258.069&#10;&#9;&#9;c-0.896,6.843-1.347,13.707-1.36,20.552"/>
	
		<line style="fill:none;stroke:#000000;stroke-width:15;stroke-linecap:round;stroke-linejoin:round;stroke-miterlimit:10;" x1="165.347" y1="38.866" x2="346.653" y2="38.866"/>
	<path style="fill:none;stroke:#000000;stroke-width:15;stroke-linecap:round;stroke-linejoin:round;stroke-miterlimit:10;" d="&#10;&#9;&#9;M362.819,73.879H149.181c-4.206,0-7.732,3.177-8.17,7.36l-8.824,84.344c-0.371,3.55,1.592,6.925,4.856,8.372&#10;&#9;&#9;c10.371,4.596,35.999,14.238,80.886,21.088c25.237,3.851,50.904,3.851,76.141,0c44.887-6.85,70.515-16.492,80.886-21.088&#10;&#9;&#9;c3.264-1.446,5.227-4.821,4.856-8.372l-8.824-84.344C370.551,77.056,367.025,73.879,362.819,73.879z"/>
	<g>
		
			<circle style="fill:none;stroke:#000000;stroke-width:15;stroke-linecap:round;stroke-linejoin:round;stroke-miterlimit:10;" cx="166.782" cy="318.283" r="24.964"/>
		
			<circle style="fill:none;stroke:#000000;stroke-width:15;stroke-linecap:round;stroke-linejoin:round;stroke-miterlimit:10;" cx="345.218" cy="318.283" r="24.964"/>
	</g>
	
		<line style="fill:none;stroke:#000000;stroke-width:15;stroke-linecap:round;stroke-linejoin:round;stroke-miterlimit:10;" x1="256" y1="73.879" x2="256" y2="197.931"/>
	<g>
		<path style="fill:none;stroke:#000000;stroke-width:15;stroke-linecap:round;stroke-linejoin:round;stroke-miterlimit:10;" d="&#10;&#9;&#9;&#9;M91.708,197.931c1.296,12.083,8.113,23.48,15.653,32.717c8.354,10.233,20.923,18.77,34.455,23.849"/>
		<path style="fill:none;stroke:#000000;stroke-width:15;stroke-linecap:round;stroke-linejoin:round;stroke-miterlimit:10;" d="&#10;&#9;&#9;&#9;M420.292,197.931c-1.296,12.083-8.113,23.48-15.653,32.717c-8.354,10.233-20.923,18.77-34.455,23.849"/>
	</g>
</g>















</svg>
